<?xml version="1.0" encoding="UTF-8"?>
<!DOCTYPE svg PUBLIC "-//W3C//DTD SVG 1.1//EN" "http://www.w3.org/Graphics/SVG/1.1/DTD/svg11.dtd">
<!-- Creator: CorelDRAW -->
<svg xmlns="http://www.w3.org/2000/svg" xml:space="preserve" width="52.9031mm" height="53.0569mm" version="1.1" style="shape-rendering:geometricPrecision; text-rendering:geometricPrecision; image-rendering:optimizeQuality; fill-rule:evenodd; clip-rule:evenodd"
viewBox="0 0 1973.7 1979.44"
 xmlns:xlink="http://www.w3.org/1999/xlink"
 xmlns:xodm="http://www.corel.com/coreldraw/odm/2003">
 <defs>
  <style type="text/css">
   <![CDATA[
    .fil0 {fill:#666666}
   ]]>
  </style>
 </defs>
 <g id="Capa_x0020_1">
  <metadata id="CorelCorpID_0Corel-Layer"/>
  <path class="fil0" d="M698.71 1190.66c179.86,0.38 359.76,0.01 539.62,0.01 269.07,0 280.86,52.32 388.51,-163.46 52.28,-104.79 356.42,-672.87 346.62,-741.99 -18.81,-132.7 -336.25,-81.65 -458.74,-81.65 -181.75,0 -980.96,9.29 -1092.39,-4.07 -34.11,-71.76 -14.99,-147.34 -78.58,-180.16 -50.71,-26.18 -422.89,-55.63 -328.47,130.29 36.88,72.61 109.64,47.59 200.86,57.12l167.52 852.3c-60.17,70.09 -247.05,198.39 -243.16,329 4.1,137.57 90.42,113.51 75.34,199.71 -17.21,98.39 -31.32,135.92 14.98,228.9 145.25,291.68 638.03,169.77 546.87,-231.16l422.79 0c-43.32,235.26 92.56,428.59 335.83,388.67 189.99,-31.18 321.3,-269.65 191.51,-456.78 -122.22,-176.22 -372.25,-129.31 -634.26,-129.31 -227.58,0 -530.06,16.95 -748.57,-3.25 42.73,-48.48 87.84,-88.02 134.72,-136.82 76.75,-79.9 75.58,-57.66 219,-57.36zm781.75 387.79c58.42,0 105.79,47.37 105.79,105.79 0,58.42 -47.37,105.79 -105.79,105.79 -58.42,0 -105.79,-47.37 -105.79,-105.79 0,-58.42 47.37,-105.79 105.79,-105.79zm-988.08 0c58.42,0 105.79,47.37 105.79,105.79 0,58.42 -47.37,105.79 -105.79,105.79 -58.42,0 -105.79,-47.37 -105.79,-105.79 0,-58.42 47.37,-105.79 105.79,-105.79zm83.05 -588.28l-116.87 -589.17 1255.8 0.3 -290.14 592.08 -848.79 -3.21z"/>
 </g>
</svg>
